<svg width="32" height="40" viewBox="0 0 32 40" fill="none" xmlns="http://www.w3.org/2000/svg">
<g id="dog_barking_48dp">
<path id="sound_detection_dog_barking" d="M1.75 40V19.2H4.75V37H20.75V25.85L25.85 20.75C26.85 19.75 27.6167 18.6083 28.15 17.325C28.6833 16.0417 28.95 14.7 28.95 13.3C28.95 11.9 28.675 10.5583 28.125 9.275C27.575 7.99167 26.8167 6.86667 25.85 5.9L24.25 4.25L17.7 10.8H8.7L6.05 13.45L3.9 11.35L7.45 7.8H16.45L24.25 0L28 3.75C29.2667 5.01667 30.2333 6.475 30.9 8.125C31.5667 9.775 31.9167 11.5 31.95 13.3C31.9167 15.1 31.5667 16.825 30.9 18.475C30.2333 20.125 29.2667 21.5833 28 22.85L23.75 27.1V40H1.75ZM11.1 29.25L1.05 19.2C0.716666 18.8667 0.466666 18.4917 0.299999 18.075C0.133333 17.6583 0.0499992 17.2167 0.0499992 16.75C0.0499992 16.2833 0.133333 15.8333 0.299999 15.4C0.466666 14.9667 0.716666 14.5833 1.05 14.25L4.9 10.35L10.75 16.15C11.65 17.05 12.3417 18.075 12.825 19.225C13.3083 20.375 13.55 21.5833 13.55 22.85C13.55 24.0167 13.3417 25.1583 12.925 26.275C12.5083 27.3917 11.9 28.3833 11.1 29.25Z" fill="#1C1B1F"/>
</g>
</svg>
